# xmcd
#
# Track frame offsets:
#	150
#	10102
#	25257
#	36100
#	47029
#	60076
#	76603
#	88903
#	106156
#	120393
#	132261
#	144478
#	160770
#	178121
#	187285
#	199924
#
# Disc length: 2875 seconds
#
# Revision: 0
# Processed by: cddbd v1.5.2PL0 Copyright (c) Steve Scherf et al.
# Submitted via: EasyCDDAExtractor 11.1.0.1
#
DISCID=cb0b3910
DTITLE=Ralf Paulsen - Bonanza
DYEAR=1900
DGENRE=country
TTITLE0=Bonanza
TTITLE1=Es hängt ein pferdehalfter an der wand
TTITLE2=Geisterreiter
TTITLE3=Oh my darling Caroline
TTITLE4=Das alte haus von Rocky Docky
TTITLE5=High noon 12 uhr mittags
TTITLE6=Die western von gestern
TTITLE7=Little Joe goodbye
TTITLE8=Höllenfahrt nach Santa Fe
TTITLE9=Tom Dooley
TTITLE10=Kein gold im Blue River
TTITLE11=Neu sind die namen
TTITLE12=Das duell
TTITLE13=Tränen in deinen augen
TTITLE14=Kleine Annabell
TTITLE15=Sierra madre del sur
EXTD=
EXTT0=
EXTT1=
EXTT2=
EXTT3=
EXTT4=
EXTT5=
EXTT6=
EXTT7=
EXTT8=
EXTT9=
EXTT10=
EXTT11=
EXTT12=
EXTT13=
EXTT14=
EXTT15=
PLAYORDER=
